<svg xmlns="http://www.w3.org/2000/svg" xmlns:xlink="http://www.w3.org/1999/xlink" version="1.1" id="Layer_1" x="0px" y="0px" viewBox="0 0 111.5 117.5" style="enable-background:new 0 0 111.5 117.5;" xml:space="preserve" width="111.5"  height="117.5" > <style type="text/css"> .st0{fill:#231F20;} .st1{fill:#FFE700;} .st2{fill:#ED3024;} .st3{fill:#FFFFFF;} .st4{fill:#004486;} .st5{fill:url(#XMLID_55_);} .st6{opacity:0.72;fill:url(#XMLID_56_);enable-background:new ;} .st7{opacity:0.41;fill:url(#XMLID_57_);enable-background:new ;} </style> <g id="XMLID_1_"> <g id="XMLID_2_"> <g id="XMLID_3_"> <g id="XMLID_12_"> <path id="XMLID_53_" class="st0" d="M106.3,55.1c-4-7.6-4.3-12.9-4.3-13.9c0-0.1,0-0.2,0-0.2l0,0v-0.1c0-0.2,0-0.4,0-0.6 c0-1.1,0.9-6,5.1-11.5l1.9-2.3c0.8-1,0.8-2.5-0.1-3.5L92,4.6c-0.6-0.6-1.5-1-2.4-0.8c-0.9,0.1-1.6,0.7-2,1.5l-0.7,1.6 c-0.4,0.9-1.6,3.5-7.4,3.5c-2.9,0-5.7-2.6-7.1-5.1l-0.9-1.5c-0.4-0.8-1.2-1.3-2.1-1.4c-0.9-0.1-1.8,0.3-2.3,1L66,4.8 c-1.9,2.5-6.4,5.1-11.2,5.1h-0.1c-5.7,0-10.1-2.3-11.5-4.6L42,3.4c-0.5-0.8-1.4-1.3-2.4-1.3c-1,0.1-1.8,0.7-2.2,1.6l-0.9,2 c-1.3,2.9-4.2,4.8-7.4,4.8c-2.8,0-5.4-1.4-6.9-3.8l-0.9-1.3c-0.4-0.7-1.2-1.2-2.1-1.2c-0.8-0.1-1.7,0.3-2.2,0.9l-15.2,18 C1.1,24,1,25.3,1.6,26.3l1.8,2.8c0.1,0.1,0.1,0.2,0.2,0.3l0.1,0.1c1.4,1.6,2.8,4,3.9,6.9c0.8,2.1,1.2,3.9,1.3,4.5 c0,0.1,0,0.2,0,0.3v0.1c0,0,0,0.1,0,0.2c0,1-0.2,6.3-4.2,13.9C4.1,56.6,1,62.7,1,70.8c0,5,1.2,9.7,3.6,14.1l0,0 c1,1.6,8,13.1,28.4,20.1c0.1,0,0.1,0,0.2,0.1l0,0c0.2,0.1,0.9,0.3,2.1,0.6c2.8,0.9,12.3,4.1,18,8.8l0.8,0.6 c0.5,0.4,1.1,0.6,1.7,0.6c0.6,0,1.2-0.2,1.7-0.6l0.7-0.6c3.7-3.1,8.9-5.5,12.7-7c2.2-0.9,4.1-1.5,5.3-1.9 c1.1-0.4,1.9-0.6,2.1-0.6c0.1,0,0.2-0.1,0.3-0.1c20.4-7.2,27.2-18.9,28-20.4l0,0c2.3-4.3,3.5-9,3.5-14 C110.1,62.4,106.9,56.2,106.3,55.1z M102,40.3L102,40.3c-0.1-0.4-0.1-0.7-0.3-0.9C101.9,39.7,102,40,102,40.3L102,40.3z M101.5,39c0.1,0.1,0.1,0.2,0.2,0.3C101.7,39.2,101.6,39.1,101.5,39z M101,38.5c-0.4-0.3-0.8-0.5-1.3-0.5l0,0 C100.2,38,100.7,38.2,101,38.5z"/> <g id="XMLID_13_"> <path id="XMLID_52_" class="st1" d="M8.9,57.3c0,0-0.5,0.9-1.1,2.5l95.6-0.3c-0.6-1.6-1.2-2.5-1.2-2.5 c-2.8-5.4-3.9-9.7-4.4-12.5l-84.6,0.2C12.8,47.6,11.7,51.9,8.9,57.3z"/> <path id="XMLID_51_" class="st2" d="M77.7,60.6l0.1,39.8c5.2-2,9.5-4.2,12.8-6.4l-0.1-33.4L77.7,60.6z"/> <path id="XMLID_50_" class="st1" d="M92.8,42.9l-0.1-31.5l-2.8-3.3c-1.2,2.5-3.2,4.5-5.7,5.7L84.3,43L92.8,42.9z"/> <polygon id="XMLID_49_" class="st1" points="104.7,25.4 99.9,19.8 99.9,33.7 "/> <path id="XMLID_48_" class="st1" d="M61.4,43l-0.1-29.5c-2,0.6-4.1,0.9-6.4,0.9c-0.7,0-1.4,0-2-0.1L53,43H61.4z"/> <path id="XMLID_47_" class="st2" d="M19.8,60.8l0.1,32.9c3.4,2.3,7.8,4.7,13.3,6.8l-0.1-39.7H19.8z"/> <path id="XMLID_46_" class="st3" d="M25.1,33.3H10.6l0,0c2.7,4.1,2.7,6.2,2.8,8c0,0,0,0.6,0,1.7h11.8L25.1,33.3z"/> <path id="XMLID_45_" class="st3" d="M45.7,26.1V12.5c-2.4-1.1-4.3-2.7-5.4-4.5c-1.5,3.3-4.4,5.8-8,6.7v11.4L45.7,26.1z"/> <rect id="XMLID_44_" x="32.3" y="33.3" transform="matrix(1 -3.355942e-03 3.355942e-03 1 -0.128 0.1311)" class="st3" width="13.4" height="9.8"/> <path id="XMLID_43_" class="st3" d="M25.1,14.1c-2.3-0.9-4.2-2.6-5.5-4.6l-13.5,16l0.4,0.7h18.6V14.1z"/> <path id="XMLID_42_" class="st2" d="M47,60.7l0.1,45c3,1.5,6.1,3.3,8.6,5.3c2.4-2,5.3-3.8,8.2-5.2l-0.1-45.1L47,60.7z"/> <path id="XMLID_41_" class="st1" d="M77.1,43L77,14.7c-3.5-0.6-6.5-2.8-8.1-5.9c-0.1,0.2-0.2,0.3-0.4,0.5L68.6,43H77.1z"/> <path id="XMLID_40_" class="st2" d="M32.3,26.1V14.7c-0.9,0.2-1.8,0.3-2.7,0.3c-1.6,0-3.1-0.3-4.5-0.9v12H6.5l4.2,7.2h14.5v9.8 h7.2v-9.8h13.4v-7.2L32.3,26.1z"/> <path id="XMLID_39_" class="st2" d="M45.6,12.5v13.6v7.2v9.8h7.2l-0.1-28.7C50.2,14.1,47.7,13.5,45.6,12.5z"/> <path id="XMLID_38_" class="st2" d="M68.6,43L68.5,9.3c-1.6,1.9-4.1,3.3-7.2,4.2L61.4,43H68.6z"/> <path id="XMLID_37_" class="st2" d="M84.3,43l-0.1-29.2c-1.5,0.7-3.2,1.1-5,1.1c-0.7,0-1.5-0.1-2.2-0.2L77.1,43H84.3z"/> <path id="XMLID_36_" class="st2" d="M97.6,42.9c-0.1-1.1-0.1-1.7-0.1-1.7c-0.2-1.1-0.2-2.2-0.1-3.2l2.4-4.2V19.9l-7.2-8.4 L92.7,43L97.6,42.9z"/> <path id="XMLID_35_" class="st4" d="M7.2,60.8c-1.6,4.8-3,13.2,1.6,21.6c0,0,2.8,5.5,11.1,11.2l-0.1-32.9L7.2,60.8z"/> <path id="XMLID_34_" class="st4" d="M102.5,82.1c4.5-8.5,3-16.8,1.4-21.6H90.5l0.1,33.4C99.6,88,102.5,82.1,102.5,82.1z"/> <path id="XMLID_33_" class="st4" d="M33.1,60.7l0.1,39.7c0.4,0.1,0.9,0.3,1.3,0.5c0,0,6.2,1.7,12.7,4.8l-0.1-45L33.1,60.7z"/> <path id="XMLID_32_" class="st4" d="M63.8,60.6l0.1,45.1c6.5-3.3,12.9-5,12.9-5c0.3-0.1,0.7-0.2,1-0.4l-0.1-39.8L63.8,60.6z"/> <path id="XMLID_31_" class="st0" d="M32.3,52.3h0.5c1.2,0,2.8,0.3,2.8,2.5c0,1-0.2,2.3-2.2,2.4c-0.8,0-1.1-0.3-1.1-1V52.3z M32.3,48.3c0-0.4,0-0.8,1-0.8c1.5,0,1.9,0.9,1.9,2c0,1.6-0.4,2.3-2.8,2.3L32.3,48.3z M27.9,57.6h5.8c3.8-0.1,5.1-1.6,5.1-2.9 c0-1.8-1.9-2.5-3.4-2.8l0,0c0.8-0.2,2.8-0.6,2.8-2.4c0-2.4-3.7-2.5-4.7-2.5h-5.6v0.4c0.8,0,1.6,0.1,1.6,1.1v7.6 c0,1-0.6,1-1.6,1.1C27.9,57.2,27.9,57.6,27.9,57.6z"/> <path id="XMLID_30_" class="st0" d="M41.8,55.1c0.8,0,1.5,0.6,1.5,1.3c0,0.8-0.7,1.3-1.5,1.3c-0.9,0-1.5-0.6-1.5-1.3 C40.3,55.8,41,55.1,41.8,55.1z"/> <path id="XMLID_29_" class="st0" d="M56.8,50.1c-0.3-1.1-1.4-2.9-3.5-2.9c-0.9,0-1.9,0.5-1.9,1.5c0,0.8,0.3,1.2,1.9,1.8 l2.7,1.1c0.6,0.3,2,1.2,2,2.9c0,1.4-1.2,3.3-4.5,3.3c-1.7,0-2.5-0.5-3.1-0.5c-0.4,0-0.5,0.3-0.5,0.5h-0.5v-3.9h0.5 c0.4,1.6,1.4,3.3,3.7,3.3c2.2,0,2.2-1.6,2.2-1.8c0-1-0.8-1.4-2-1.9L52.6,53c-3.1-1.3-3.1-2.6-3.1-3.3c0-0.9,0.5-3.1,4-3.1 c1.4,0,2.3,0.5,2.8,0.5c0.4,0,0.5-0.2,0.6-0.5h0.5V50h-0.6V50.1z"/> <path id="XMLID_28_" class="st0" d="M60.9,55.1c0.8,0,1.5,0.6,1.5,1.3c0,0.8-0.7,1.3-1.5,1.3c-0.9,0-1.5-0.6-1.5-1.3 C59.4,55.7,60,55.1,60.9,55.1z"/> <path id="XMLID_27_" class="st0" d="M80,55.5c-1.3,1.3-2.7,2.3-5,2.3c-4.2,0-6.5-2.5-6.5-5.5c0-3.2,2.6-5.6,6.4-5.6 c1.6,0,3,0.7,3.5,0.7s0.7-0.3,0.8-0.7h0.5v3.7h-0.4c-0.6-1.4-2.2-3.2-4.2-3.2c-2.6,0-3.3,2.4-3.3,5.1c0,0.9,0.1,2.4,0.8,3.4 c0.8,1.1,2.2,1.3,2.8,1.3c1.4,0,2.8-0.5,4.2-1.9L80,55.5z"/> <path id="XMLID_26_" class="st0" d="M82.9,55c0.8,0,1.5,0.6,1.5,1.3c0,0.8-0.7,1.3-1.5,1.3c-0.9,0-1.5-0.6-1.5-1.3 C81.4,55.7,82,55,82.9,55z"/> <g id="XMLID_23_"> <linearGradient id="XMLID_55_" gradientUnits="userSpaceOnUse" x1="55.3511" y1="6.9" x2="55.3511" y2="115.1" gradientTransform="matrix(1 0 0 -1 0 120)"> <stop offset="0" style="stop-color:#FFD718"/> <stop offset="0.563" style="stop-color:#FFE318"/> <stop offset="0.5651" style="stop-color:#FFF118"/> </linearGradient> <path id="XMLID_25_" class="st5" d="M103.8,56.5c-4.3-8.1-4.6-13.7-4.6-15.1c0-0.2,0-0.3,0-0.3V41v-0.1c0,0,0-0.1,0-0.2 c0-1.5,0.9-7.1,5.7-13.3l1.9-2.3L89.9,6.5l-0.7,1.6c-1.7,3.5-5.2,5-9.7,5.1c-3.9,0-7.6-3.1-9.5-6.5l-1-1.6l-1,1.4 c-2.3,3.1-7.5,6.2-13.3,6.2c-6.4,0-11.9-2.6-13.8-5.9l-1.2-1.9l-0.9,2c-1.7,3.8-5.4,6.4-9.8,6.4c-3.9,0-7.2-2-9.2-5L19,6.9 L3.7,25l1.8,2.8l0.1,0.1C7.5,30,9,33,10,35.6s1.5,5,1.5,5.5l0,0v0.1v0.1c0,0,0,0.1,0,0.3c0,1.4-0.3,7.1-4.5,15.1 c0,0.1-3.4,6-3.4,14.1c0,3.9,0.8,8.3,3.3,12.8c0.1,0.2,6.1,11.9,26.8,19l0,0l0,0c0,0,0.8,0.2,2.2,0.6 c4.1,1.3,13.2,4.6,18.9,9.3l0.7,0.6l0.7-0.6c3.8-3.2,9.1-5.7,13.4-7.4c2.1-0.9,4.1-1.5,5.4-2c1.4-0.4,2.2-0.7,2.2-0.7l0,0l0,0 c20.6-7.2,26.6-19,26.7-19.2c2.4-4.4,3.2-8.8,3.2-12.8C107.2,62.8,104,57,103.8,56.5z M8.2,26.9l-0.8-1.2l12-14.2 c2.4,2.9,6,4.8,10.1,4.8c4.6,0,8.6-2.4,10.9-6c3,3.4,8.4,5.4,14.4,5.4c5.8,0,10.8-2.7,13.8-5.8c2.3,3.3,6,6.2,10.5,6.2 c4.4,0,8.5-1.4,10.8-4.9L103,25.5l-0.6,0.8c-5,6.6-6.1,12.4-6.1,14.5c0,0.2,0,0.3,0,0.5c0,0.1,0,0.2,0,0.3 c0,0.3,0,0.8,0.1,1.3h-3.7h-8.5H77h-8.5h-7.2h-8.5h-7.2H32.2H25H14.4c0-0.6,0.1-1,0.1-1.3c0-0.2,0-0.3,0-0.4 c0-0.1,0-0.1,0-0.2c0-1.1-0.6-3.4-1.6-6.2C11.9,32.4,10.4,29.3,8.2,26.9z M101.2,81.3C101.2,81.3,101.2,81.3,101.2,81.3 c-0.7,1.2-6.6,11.3-25,17.8c-1,0.3-12.9,3.6-20.8,9.7c-7.9-6.1-19.9-9.4-20.8-9.6c-9.9-3.4-16.1-7.9-20-11.5 c-1.9-1.8-3.2-3.4-4-4.5c-0.4-0.6-0.7-1-0.9-1.3c-0.1-0.1-0.1-0.3-0.2-0.3c0-0.1,0-0.1,0-0.1c-2.2-4-2.9-8-3-11.5 c0-3.7,0.8-6.9,1.5-9.2l0,0h11.4h13.3h13.9h16.8h13.9h12.9h12.1c0.8,2.3,1.6,5.6,1.6,9.2C104.1,73.3,103.4,77.3,101.2,81.3z"/> <path id="XMLID_24_" class="st0" d="M55.5,113.8c-0.1,0-0.3-0.1-0.4-0.1l-0.7-0.6c-6-5-15.8-8.3-18.7-9.1 c-1.2-0.4-2-0.6-2.1-0.6l0,0l0,0h-0.1C12.2,95.9,6.3,84,6.3,83.9c-2.2-4-3.3-8.4-3.3-13c0-7.6,2.9-13.3,3.5-14.4 c4.1-7.9,4.4-13.4,4.4-14.9c0-0.2,0-0.3,0-0.3v-0.1c0-0.1,0-0.1,0-0.1V41c0-0.4-0.4-2.6-1.4-5.2c-0.7-1.8-2.1-5.2-4.3-7.5 L5,28.2c0,0,0,0-0.1-0.1L3,25.3c-0.1-0.2-0.1-0.5,0-0.7L18.5,6.5c0.1-0.1,0.3-0.2,0.5-0.2s0.4,0.1,0.5,0.3l0.9,1.3 c1.9,3,5.1,4.8,8.6,4.8c4,0,7.6-2.4,9.2-6l0.9-2c0.1-0.2,0.3-0.3,0.5-0.4c0.2,0,0.4,0.1,0.6,0.3l1.2,1.9 c2,3.3,7.4,5.6,13.2,5.6l0.1,0.6v-0.6c5.6,0,10.6-3.1,12.8-5.9l1.1-1.4c0.1-0.2,0.3-0.2,0.5-0.2s0.4,0.1,0.5,0.3l0.9,1.5 c1.7,3.1,5.1,6.2,8.9,6.2c4.7,0,7.8-1.6,9.3-4.7l0.7-1.6C89.5,6.1,89.7,6,89.9,6s0.4,0,0.5,0.2l16.9,18.4 c0.2,0.2,0.2,0.6,0,0.8l-1.9,2.3c-4.6,6-5.6,11.4-5.6,12.9c0,0.1,0,0.1,0,0.1v0.1v0.1V41l0,0c0,0,0,0.1,0,0.3 c0,1.5,0.3,7,4.5,14.9c0.6,1.1,3.5,6.8,3.6,14.4c0,4.7-1.1,9-3.3,13.1c0,0.1-6,12.1-27,19.5h-0.1l0,0l0,0 c-0.2,0-0.9,0.3-2.1,0.6c-1.2,0.4-3.2,1.1-5.4,1.9c-3.9,1.5-9.3,4.1-13.2,7.3l-0.7,0.6C55.8,113.8,55.7,113.8,55.5,113.8z M33.9,102.1c0.2,0,1,0.3,2.2,0.6c3.7,1.2,13.1,4.4,19.1,9.4l0.4,0.3l0.4-0.3c4-3.4,9.6-5.9,13.6-7.5c2.3-0.9,4.2-1.6,5.5-2 c1.2-0.4,2-0.6,2.2-0.7l0,0c0,0,0,0,0.1,0C98,94.7,103.7,83.1,103.8,83c2.1-3.9,3.1-8.1,3.1-12.5c0-7.3-2.8-12.8-3.4-13.8 c-4.3-8.1-4.6-13.9-4.6-15.4c0-0.2,0-0.3,0-0.3l0,0v-0.1v-0.1l0,0c0-0.1,0-0.2,0-0.3c0-1.7,1-7.4,5.8-13.7L106,25L90,7.6 l-0.4,0.8c-1.6,3.5-5.2,5.4-10.3,5.4l0,0c-4.3,0-8.1-3.4-10-6.8L69,6.2l-0.5,0.7c-2.4,3.1-7.7,6.4-13.7,6.4h-0.1 c-6.3,0-12-2.5-14.3-6.2l-0.5-0.9l-0.4,1c-1.8,4.1-5.9,6.7-10.4,6.7c-3.9,0-7.6-2-9.7-5.3L18.9,8L4.4,25L6,27.4 c2.3,2.5,3.8,6,4.5,7.9c0.9,2.4,1.5,4.9,1.5,5.6V41v0.1v0.1l0,0c0,0,0,0.1,0,0.4c0,1.6-0.3,7.3-4.5,15.4 c-0.4,0.7-3.4,6.3-3.3,13.8c0,4.4,1.1,8.6,3.2,12.5C7.4,83.5,13.5,95.1,33.9,102.1C33.8,102.1,33.8,102.1,33.9,102.1 L33.9,102.1z M55.4,109.5c-0.1,0-0.3,0-0.4-0.1c-7.1-5.5-17.5-8.7-20.6-9.5h-0.1c-8.2-2.8-15-6.7-20.2-11.6 c-2-1.9-3.3-3.5-4.1-4.6c-0.4-0.6-0.7-1.1-0.9-1.3c0-0.2,0-0.3-0.1-0.4v-0.1l0,0C7,78.2,6,74.2,6,70c0-3.9,0.9-7.3,1.6-9.4 c0.1-0.3,0.3-0.5,0.6-0.5l94.3-0.3c0.3,0,0.5,0.2,0.6,0.4c0.7,2.2,1.6,5.6,1.6,9.4c0,4.2-1,8.2-2.9,11.8l-0.1,0.1 c-0.6,1.2-6.7,11.5-25.3,18h-0.1c-3,0.9-13.4,4.1-20.5,9.6C55.7,109.4,55.6,109.5,55.4,109.5z M10.1,81.3L10.1,81.3L10.1,81.3 c0.1,0.2,0.1,0.3,0.2,0.4c0.2,0.3,0.4,0.7,0.8,1.3c0.7,1,2,2.6,3.9,4.4c3.5,3.2,9.7,7.8,19.7,11.3c3.1,0.9,13.4,4,20.6,9.4 c7.2-5.5,17.5-8.7,20.6-9.5c18.1-6.4,24-16.3,24.6-17.4v-0.1c1.9-3.5,2.8-7.3,2.8-11.3c0-3.5-0.8-6.5-1.4-8.6L8.6,61.4 c-0.7,2.1-1.4,5.1-1.4,8.6C7.2,74,8.2,77.8,10.1,81.3L10.1,81.3z M96.4,43.7l-81.9,0.2c-0.2,0-0.3-0.1-0.4-0.2 c-0.1-0.1-0.2-0.3-0.2-0.5c0-0.6,0.1-1,0.1-1.3c0-0.2,0-0.3,0-0.4c0-0.1,0-0.2,0-0.2c0-0.9-0.4-3-1.6-6 c-1.3-3.4-2.8-6.1-4.6-8.1c0,0,0-0.1-0.1-0.1l-0.8-1.2c-0.1-0.2-0.1-0.5,0-0.7l12-14.2c0.1-0.1,0.3-0.2,0.5-0.2 s0.4,0.1,0.5,0.2c2.4,2.9,5.9,4.6,9.6,4.6c4.2,0,8.1-2.1,10.4-5.7c0.1-0.2,0.3-0.3,0.5-0.3s0.4,0.1,0.5,0.2 c2.9,3.3,8.2,5.2,14,5.2c5,0,10-2.1,13.4-5.6c0.1-0.1,0.3-0.2,0.5-0.2s0.4,0.1,0.5,0.3c1.2,1.8,4.7,5.9,10,6h0.1 c4.6,0,8.2-1.6,10.2-4.6c0.1-0.2,0.3-0.3,0.5-0.3s0.4,0.1,0.5,0.2l13.1,14.3c0.2,0.2,0.2,0.6,0,0.8l-0.6,0.8 c-4.7,6.2-6,11.8-6,14.2c0,0.1,0,0.3,0,0.4v0.1c0,0.1,0,0.2,0,0.3c0,0.3,0,0.7,0.1,1.3c0,0.2,0,0.3-0.2,0.5 C96.8,43.6,96.6,43.7,96.4,43.7z M15.1,42.7l80.6-0.2c0-0.3,0-0.6,0-0.7c0-0.1,0-0.2,0-0.3c0-0.2,0-0.3,0-0.5 c0-2.5,1.3-8.5,6.3-14.9l0.3-0.4L90.1,12.3c-2.3,2.9-6.1,4.5-10.8,4.5h-0.1c-4,0-7.8-2.2-10.6-5.9c-3.6,3.4-8.7,5.4-13.7,5.4 c-5.8,0-11.1-1.9-14.4-5c-2.5,3.5-6.6,5.6-11,5.6c-3.9,0-7.5-1.6-10.1-4.5L8.2,25.8l0.5,0.8c1.9,2.1,3.5,5,4.8,8.4 c1,2.7,1.6,5.1,1.6,6.4c0,0.1,0,0.2,0,0.3c0,0,0,0.2,0,0.3C15.2,42.2,15.1,42.4,15.1,42.7z"/> </g> <path id="XMLID_22_" class="st3" d="M56.2,99.8c9.2,0,16.6-7.5,16.6-16.7s-7.5-16.6-16.7-16.6S39.5,74,39.5,83.2 C39.6,92.5,47,99.9,56.2,99.8z"/> <path id="XMLID_21_" class="st0" d="M39.1,83.3c0-9.4,7.6-17.1,17-17.1l0,0c9.4,0,17.1,7.6,17.1,17l0,0c0,9.4-7.6,17.1-17,17.1 l0,0v-0.5v-0.5c8.9,0,16.1-7.3,16.1-16.2l0,0C72.3,74.2,65,67,56.1,67l0,0C47.2,67,40,74.3,40,83.2l0,0 c0,8.9,7.3,16.1,16.2,16.1l0,0v0.5v0.5C46.8,100.3,39.1,92.7,39.1,83.3L39.1,83.3z"/> <path id="XMLID_20_" class="st0" d="M51.5,77.1c0,0-1.2-0.2-2.5-1l0,0c-1.3-0.8-2.6-2.2-2.6-4.6l0,0c0-0.8,0.1-1.6,0.4-2.5l0,0 l0.9,0.3c-0.3,0.8-0.4,1.6-0.4,2.2l0,0c0,2,1,3.1,2.1,3.8l0,0c0.7,0.5,1.5,0.7,1.9,0.8l0,0c2-3.2,6-4,9.7-4l0,0 c4.5,0,8.7,1.2,8.7,1.2l0,0l0,0l-0.3,0.9c0,0-1-0.3-2.6-0.6l0,0c-1.6-0.3-3.7-0.6-5.9-0.6l0,0c-3.7,0-7.5,0.9-9.1,3.8l0,0 l-0.2,0.3L51.5,77.1L51.5,77.1z"/> <path id="XMLID_19_" class="st0" d="M64,97.5c2.9-3.6,3.7-6.7,3.7-9.2l0,0c0-3.1-1.4-5.3-2.1-6.2l0,0c-0.2-0.3-0.4-0.4-0.4-0.4 l0,0L65,81.5l0.1-0.3c1-2.7,3.2-3.4,4.9-3.4l0,0c1.3,0,2.3,0.4,2.3,0.4l0,0l0,0L72,79.1c0,0-0.2-0.1-0.6-0.2l0,0 c-0.4-0.1-0.9-0.2-1.4-0.2l0,0c-1.4,0-3,0.4-3.9,2.5l0,0c0.6,0.7,2.5,3.2,2.5,7l0,0c0,2.7-0.9,6-3.9,9.8l0,0L64,97.5L64,97.5z"/> <path id="XMLID_18_" class="st0" d="M52.1,81.6c-0.9-1.5-1-3.1-1-4.1l0,0c0-0.6,0-0.9,0-0.9l0,0l0.9,0.1c0,0,0,0.3,0,0.8l0,0 c0,0.9,0.2,2.4,0.9,3.7l0,0c0.7,1.2,2,2.2,4.5,2.2l0,0c0.5-0.8,2.3-3.1,5.3-3.2l0,0c1,0,2,0.3,3.2,0.9l0,0l-0.5,0.8 c-1-0.6-1.9-0.8-2.7-0.8l0,0c-1.4,0-2.6,0.7-3.4,1.5l0,0c-0.8,0.7-1.2,1.5-1.2,1.5l0,0L58,84.3h-0.3c-0.1,0-0.2,0-0.2,0l0,0 l0,0l0,0C54.6,84.3,53,83.1,52.1,81.6L52.1,81.6z"/> <path id="XMLID_17_" class="st0" d="M55.6,92.6c0,0-3.2-0.1-6.7-2.1l0,0c-3.5-2-7.2-6.1-8.3-14l0,0l0.9-0.1 c1.6,11.4,8.8,14.3,12.3,15.1l0,0c0.8,0.2,1.5,0.2,1.7,0.3l0,0c1.9-1.5,2.3-3.2,2.3-4.7l0,0c0-0.8-0.2-1.6-0.3-2.1l0,0 c-0.2-0.5-0.3-0.8-0.3-0.8l0,0l0.8-0.4c0,0,0.7,1.4,0.7,3.3l0,0c0,1.7-0.6,3.9-2.8,5.5l0,0l-0.1,0.1h-0.2V92.6z"/> <path id="XMLID_16_" class="st0" d="M54.3,99.3c1.8-1.6,2.3-3,2.3-4.1l0,0c0-0.8-0.3-1.5-0.6-2l0,0c-0.3-0.5-0.6-0.7-0.6-0.7 l0,0l0.6-0.7c0,0,1.6,1.3,1.6,3.5l0,0c0,1.4-0.7,3-2.6,4.7l0,0L54.3,99.3L54.3,99.3z"/> <g id="XMLID_14_"> <path id="XMLID_15_" class="st0" d="M41.8,55.1c0.8,0,1.5,0.6,1.5,1.3c0,0.8-0.7,1.3-1.5,1.3c-0.9,0-1.5-0.6-1.5-1.3 C40.3,55.7,40.9,55.1,41.8,55.1z"/> </g> </g> </g> <linearGradient id="XMLID_56_" gradientUnits="userSpaceOnUse" x1="60.4116" y1="26.7029" x2="60.4116" y2="51.8446" gradientTransform="matrix(1 -2.800000e-03 -2.800000e-03 -1 -4.6455 112.4911)"> <stop offset="0.8347" style="stop-color:#000000;stop-opacity:0"/> <stop offset="1" style="stop-color:#000000"/> </linearGradient> <path id="XMLID_6649_" class="st6" d="M102.7,60.4H90.6H77.7H63.8H47H33.1H19.8H8.4l0,0c-0.8,2.3-1.6,5.5-1.5,9.2 c0,3.6,0.7,7.5,2.9,11.6c0,0,0,0,0.1,0.1c0,0.1,0.1,0.2,0.2,0.3c0.2,0.3,0.5,0.7,0.9,1.3c0.5,0.7,1.2,1.6,2.1,2.6 c10-8.1,25.3-13.5,42.5-13.6c17.2,0,32.5,5.2,42.6,13.6c2-2.2,3-3.8,3.2-4.2c0-0.1,0-0.1,0.1-0.1c2.2-4,2.9-8,2.9-11.5 C104.3,65.9,103.5,62.7,102.7,60.4z"/> <linearGradient id="XMLID_57_" gradientUnits="userSpaceOnUse" x1="60.2875" y1="68.831" x2="60.2875" y2="102.0352" gradientTransform="matrix(1 -2.800000e-03 -2.800000e-03 -1 -4.6455 112.4911)"> <stop offset="0" style="stop-color:#000000"/> <stop offset="0.1174" style="stop-color:#191919;stop-opacity:0"/> </linearGradient> <path id="XMLID_6648_" class="st7" d="M8.4,27.2L7.6,26l12-14.2c2.4,2.9,6,4.8,10.1,4.8c4.6,0,8.6-2.4,10.9-6 C43.6,14,49,16,55,16c5.8,0,10.8-2.7,13.8-5.8c2.3,3.3,6,6.2,10.5,6.2c4.4,0,8.5-1.4,10.8-4.9l13.1,14.3l-0.6,0.8 c-5,6.6-6.1,12.4-6.1,14.5c0,0.2,0,0.3,0,0.5c0,0.1,0,0.2,0,0.3c0,0.3,0,0.8,0.1,1.3h-3.7h-8.5h-7.2h-8.5h-7.2H53h-7.2H32.4h-7.2 H14.6c0.1-0.6,0.1-1,0.1-1.3c0-0.2,0-0.3,0-0.4c0-0.1,0-0.1,0-0.2c0-1.1-0.5-3.4-1.6-6.2C12.1,32.7,10.6,29.6,8.4,27.2z"/> <g id="XMLID_4_"> <g id="XMLID_5_"> <path id="XMLID_11_" class="st0" d="M32.2,52.2h0.5c1.2,0.1,2.8,0.3,2.8,2.5c0,0.9-0.2,2.4-2.2,2.4c-0.8,0-1.1-0.2-1.1-1V52.2z M32.2,48.2c0-0.4,0-0.8,1-0.8c1.5,0,1.9,0.9,1.9,2c0,1.6-0.4,2.3-2.8,2.3L32.2,48.2z M27.7,57.5h5.8c3.8-0.1,5.1-1.6,5.1-2.9 c0-1.8-1.9-2.6-3.4-2.8l0,0c0.8-0.2,2.8-0.6,2.8-2.4c0-2.4-3.7-2.5-4.7-2.5h-5.6v0.4c0.8,0,1.6,0.1,1.6,1.1V56 c0,1-0.6,1-1.6,1.1C27.7,57.1,27.7,57.5,27.7,57.5z"/> <path id="XMLID_10_" class="st0" d="M41.7,55.1c0.8,0,1.5,0.6,1.5,1.3c0,0.8-0.7,1.3-1.5,1.3c-0.9,0-1.5-0.6-1.5-1.3 C40.2,55.7,40.8,55.1,41.7,55.1z"/> <path id="XMLID_9_" class="st0" d="M56.7,50c-0.3-1.1-1.4-2.9-3.5-2.9c-0.9,0-1.9,0.5-1.9,1.5c0,0.8,0.4,1.2,1.9,1.8l2.7,1.1 c0.6,0.3,2,1.2,2,2.9c0,1.4-1.1,3.3-4.5,3.3c-1.7,0-2.5-0.5-3.1-0.5c-0.4,0-0.5,0.3-0.5,0.5h-0.5v-3.9h0.5 c0.4,1.6,1.4,3.3,3.7,3.3c2.2,0,2.3-1.6,2.3-1.8c0-1-0.9-1.4-2-1.9l-1.2-0.5c-3.1-1.3-3.1-2.6-3.1-3.3c0-0.9,0.5-3.1,4-3.1 c1.4,0,2.3,0.5,2.8,0.5c0.4,0,0.5-0.2,0.6-0.5h0.5v3.4h-0.7V50z"/> <path id="XMLID_8_" class="st0" d="M60.7,55c0.8,0,1.5,0.6,1.5,1.3c0,0.8-0.7,1.3-1.5,1.3c-0.9,0-1.5-0.6-1.5-1.3 S59.9,55,60.7,55z"/> <path id="XMLID_7_" class="st0" d="M79.9,55.4c-1.3,1.3-2.7,2.3-5,2.3c-4.2,0-6.5-2.5-6.5-5.5c0-3.2,2.6-5.6,6.4-5.6 c1.6,0,3,0.8,3.5,0.8s0.7-0.3,0.8-0.7h0.5v3.7h-0.4C78.6,49,77,47.2,75,47.2c-2.7,0-3.3,2.4-3.3,5c0,0.9,0.1,2.4,0.8,3.4 c0.7,1.1,2.2,1.4,2.7,1.4c1.4,0,2.8-0.5,4.3-1.9L79.9,55.4z"/> <path id="XMLID_6_" class="st0" d="M82.8,55c0.9,0,1.5,0.6,1.5,1.3c0,0.8-0.7,1.3-1.5,1.3c-0.9,0-1.5-0.6-1.5-1.3 S81.9,55,82.8,55z"/> </g> </g> </g> </g> </g> </svg>