<?xml version="1.0" encoding="UTF-8"?>
<svg id="Capa_2" data-name="Capa 2" xmlns="http://www.w3.org/2000/svg" xmlns:xlink="http://www.w3.org/1999/xlink" viewBox="0 0 580.79 625.63">
  <defs>
    <style>
      .cls-1 {
        fill: none;
      }

      .cls-1, .cls-2, .cls-3, .cls-4 {
        stroke-width: 0px;
      }

      .cls-2 {
        fill: #00539e;
      }

      .cls-3 {
        fill: #fff;
      }

      .cls-5 {
        clip-path: url(#clippath);
      }

      .cls-4 {
        fill: #fe1822;
      }
    </style>
    <clipPath id="clippath">
      <path class="cls-1" d="M290.39,583.81c-81.11-54.24-143.57-119.5-185.74-194.1-40.92-72.39-63.96-155.74-68.55-247.93,110.02-8.75,195.42-39.93,254.28-92.84,58.87,52.9,144.26,84.08,254.28,92.84-4.59,92.2-27.63,175.55-68.55,247.93-42.17,74.59-104.62,139.86-185.74,194.1Z"/>
    </clipPath>
  </defs>
  <g id="Capa_4" data-name="Capa 4">
    <path class="cls-3" d="M290.39,28.28c59.06,59.06,149.01,92.24,269.84,99.55-5.78,200.53-93.74,359.52-269.84,473.95C114.29,487.35,26.33,328.36,20.55,127.83c120.83-7.3,210.78-40.49,269.84-99.55M290.39,0l-14.14,14.14C221.03,69.37,134.59,100.9,19.34,107.87l-19.34,1.17.56,19.37c1.49,51.57,8.38,101.05,20.49,147.08,12.23,46.48,30.11,90.7,53.14,131.45,23.16,40.97,52.16,79.54,86.2,114.64,34.08,35.14,74.15,67.77,119.11,96.97l10.9,7.08,10.9-7.08c44.95-29.21,85.02-61.83,119.11-96.97,34.04-35.1,63.04-73.67,86.2-114.64,23.04-40.75,40.92-84.98,53.14-131.45,12.11-46.02,19-95.5,20.49-147.08l.56-19.37-19.34-1.17c-115.25-6.97-201.68-38.5-256.91-93.73l-14.14-14.14h0Z"/>
    <path class="cls-2" d="M290.39,28.28c59.06,59.06,149.01,92.24,269.84,99.55-5.78,200.53-93.74,359.52-269.84,473.95C114.29,487.35,26.33,328.36,20.55,127.83c120.83-7.3,210.78-40.49,269.84-99.55M290.39,7.07l-10.61,10.61C223.67,73.79,136.15,105.82,19.64,112.86l-14.51.88.42,14.53c1.48,51.19,8.31,100.29,20.32,145.95,12.12,46.06,29.84,89.89,52.66,130.27,22.95,40.6,51.7,78.83,85.44,113.62,33.82,34.87,73.6,67.26,118.24,96.26l8.17,5.31,8.17-5.31c44.64-29,84.42-61.39,118.24-96.26,33.74-34.79,62.49-73.02,85.44-113.62,22.83-40.38,40.54-84.21,52.66-130.27,12.01-45.65,18.85-94.76,20.32-145.95l.42-14.53-14.51-.88c-116.5-7.04-204.03-39.07-260.14-95.18l-10.61-10.61h0Z"/>
    <path class="cls-4" d="M290.39,28.28C231.33,87.35,141.38,120.53,20.55,127.83c5.78,200.53,93.74,359.52,269.84,473.95,176.11-114.43,264.06-273.42,269.84-473.95-120.83-7.3-210.78-40.49-269.84-99.55Z"/>
    <g class="cls-5">
      <rect class="cls-2" x="36.11" y="-91.3" width="90.88" height="733.46"/>
      <rect class="cls-2" x="453.8" y="-91.3" width="90.88" height="733.46"/>
      <rect class="cls-2" x="234.05" y="-91.3" width="112.7" height="733.46"/>
    </g>
    <g>
      <ellipse class="cls-3" cx="290.39" cy="278.43" rx="128" ry="123"/>
      <path class="cls-4" d="M290.39,160.93c67.65,0,122.5,52.61,122.5,117.5s-54.85,117.5-122.5,117.5-122.5-52.61-122.5-117.5,54.85-117.5,122.5-117.5M290.39,149.93c-35.57,0-69.04,13.31-94.24,37.48-25.32,24.29-39.26,56.61-39.26,91.02s13.94,66.74,39.26,91.02c25.2,24.17,58.66,37.48,94.24,37.48s69.04-13.31,94.24-37.48c25.32-24.29,39.26-56.61,39.26-91.02s-13.94-66.74-39.26-91.02c-25.2-24.17-58.66-37.48-94.24-37.48h0Z"/>
    </g>
    <path class="cls-2" d="M290.39,160.93c67.65,0,122.5,52.61,122.5,117.5s-54.85,117.5-122.5,117.5-122.5-52.61-122.5-117.5,54.85-117.5,122.5-117.5M290.39,154.93c-34.28,0-66.51,12.82-90.77,36.08-24.33,23.34-37.73,54.38-37.73,87.42s13.4,64.08,37.73,87.42c24.26,23.27,56.5,36.08,90.77,36.08s66.51-12.82,90.77-36.08c24.33-23.34,37.73-54.38,37.73-87.42s-13.4-64.08-37.73-87.42c-24.26-23.27-56.5-36.08-90.77-36.08h0Z"/>
    <path class="cls-2" d="M212.7,278.43c0,38.67,30.88,70.55,70.22,74.17v-14.42c-28.64-3.27-51.41-25.12-54.83-52.59-.29-2.35-.46-4.74-.46-7.16s.17-4.81.46-7.16c3.41-27.47,26.19-49.32,54.83-52.59v-14.42c-39.35,3.62-70.22,35.5-70.22,74.17Z"/>
    <path class="cls-2" d="M367.72,271.27c-3.04-30.45-25.27-55.6-54.92-64.19-4.8-1.39-9.8-2.35-14.94-2.82v148.34c5.14-.47,10.13-1.43,14.94-2.82v-64.19h54.92c.24-2.36.37-4.75.37-7.16s-.13-4.8-.37-7.16ZM312.8,271.27v-49.05c21.34,7.85,37.1,26.56,39.89,49.05h-39.89Z"/>
    <path class="cls-2" d="M290.39,367.28c-51.08,0-92.63-39.86-92.63-88.85s41.55-88.85,92.63-88.85c29.96,0,56.64,13.72,73.59,34.95l11.87-8.69c-19.67-24.65-50.66-40.59-85.45-40.59-59.31,0-107.56,46.28-107.56,103.17s48.25,103.17,107.56,103.17c34.79,0,65.78-15.93,85.45-40.59l-11.87-8.69c-16.94,21.23-43.62,34.95-73.59,34.95Z"/>
  </g>
</svg>